Genre:Adventure | Comedy | Drama
Language:English
IMDb:http://www.imdb.com/title/tt1667353/
Source:Russian TS/Hope Thanks!
Encoder:Tony

Format : AVI
Format/Info : Audio Video Interleave
File size : 932 MiB
Duration : 1h 38mn
Overall bit rate : 1 326 Kbps

Video
ID : 0
Format : MPEG-4 Visual
Format profile : Advanced Simple@L5
Format settings, BVOP : 1
Format settings, QPel : No
Format settings, GMC : No warppoints
Format settings, Matrix : Default (H.263)
Codec ID : XVID
Codec ID/Hint : XviD
Duration : 1h 38mn
Bit rate : 1 124 Kbps
Width : 640 pixels
Height : 240 pixels
Display aspect ratio : 2.667
Frame rate : 25.000 fps
Color space : YUV
Chroma subsampling : 4:2:0
Bit depth : 8 bits
Scan type : Progressive
Compression mode : Lossy
Bits/(Pixel*Frame) : 0.293
Stream size : 790 MiB (85%)
Writing library : XviD 1.2.1 (UTC 2008-12-04)

Audio
ID : 1
Format : AC-3
Format/Info : Audio Coding 3
Mode extension : CM (complete main)
Codec ID : 2000
Duration : 1h 38mn
Bit rate mode : Constant
Bit rate : 192 Kbps
Channel(s) : 2 channels
Channel positions : Front: L R
Sampling rate : 48.0 KHz
Bit depth : 16 bits
Compression mode : Lossy
Stream size : 135 MiB (14%)
Alignment : Aligned on interleaves
Interleave, duration : 40 ms (1.00 video frame)
Interleave, preload duration : 512 ms
 
http://img638.imageshack.us/img638/5646/vlcsnap2012032206h26m20.png 
http://img543.imageshack.us/img543/4776/vlcsnap2012032206h27m03.png
Plot:
An evil queen steals control of a kingdom and an exiled princess enlists the help of seven resourceful rebels to win back her birthright.





Greets:

CRYS,IMAGINE,LKRG,FXG,3Li,FLAWL3SS,TA,iLLUSiON,EMBER,HOPE,GooN,BBnRG,NOGRP,ETRG,BHRG,iLLUMiNATi,MiSTERE.ViSiON,DTRG SAFCuk009,LU,TheFalcon007,MYSTiC,PrisM,Noir,WBZ,LAP,Rx,Kingdom,SAFCuk009+Fabreezy,HDLiTE,TWiZTED,ExtraTorrentRG.ELEKTRI4KA,MAGNAT,CM8
And to all the other p2p grps past and present




Make sure its a real Feel-Free release @

Thanks to all who promotes release Feel-Free !!!